<?xml version="1.0" standalone="no"?>
<!DOCTYPE svg PUBLIC "-//W3C//DTD SVG 20010904//EN"
 "http://www.w3.org/TR/2001/REC-SVG-20010904/DTD/svg10.dtd">
<svg version="1.0" xmlns="http://www.w3.org/2000/svg"
 width="606.000000pt" height="606.000000pt" viewBox="0 0 606.000000 606.000000"
 preserveAspectRatio="xMidYMid meet">

<g transform="translate(0.000000,606.000000) scale(0.100000,-0.100000)"
fill="#000000" stroke="none">
<path d="M3030 5594 c-8 -1 -36 -5 -61 -9 -59 -8 -128 -52 -165 -108 -15 -23
-28 -43 -29 -44 0 -1 -54 -13 -120 -28 -164 -36 -332 -93 -451 -153 -104 -52
-266 -156 -297 -189 -9 -11 -90 -188 -178 -394 -218 -507 -273 -634 -367 -844
-195 -438 -328 -752 -332 -785 -4 -30 2 -40 100 -156 115 -137 110 -100 43
-334 -62 -214 -100 -373 -108 -450 -6 -61 -10 -70 -66 -140 -89 -111 -117
-190 -144 -401 -4 -33 -18 -63 -46 -100 -54 -73 -85 -139 -109 -234 -19 -73
-24 -83 -70 -123 -68 -59 -138 -160 -167 -241 -34 -93 -42 -224 -18 -324 16
-67 20 -76 44 -80 32 -6 5051 -6 5107 0 38 4 42 8 53 43 16 54 14 235 -4 305
-27 104 -73 183 -159 270 -75 75 -80 83 -93 145 -17 82 -62 179 -114 246 -38
49 -41 58 -50 150 -16 157 -50 241 -148 362 -40 49 -51 71 -51 99 0 52 -35
213 -74 344 -40 131 -86 310 -86 333 0 8 39 61 86 117 119 143 120 144 90 221
-33 87 -366 853 -661 1518 -18 41 -54 125 -80 185 -25 61 -60 143 -77 183 -35
82 -57 104 -203 198 -160 102 -384 192 -575 229 -47 9 -94 19 -105 21 -11 2
-34 26 -52 53 -39 60 -96 96 -177 110 -33 6 -62 10 -65 10 -3 -1 -13 -3 -21
-5z m95 -87 c56 -32 58 -54 3 -62 -50 -7 -185 -1 -195 9 -12 12 12 40 48 58
46 24 96 22 144 -5z m-170 -148 c4 -5 -14 -32 -39 -59 -45 -48 -56 -73 -37
-85 15 -9 39 -128 55 -275 23 -205 29 -280 23 -280 -14 0 -128 188 -158 258
-29 67 -33 88 -33 167 0 82 3 97 34 163 19 42 47 84 64 98 32 25 80 32 91 13z
m273 -10 c114 -106 133 -307 44 -479 -37 -72 -133 -222 -139 -216 -6 5 24 310
38 391 6 33 19 96 30 140 l19 79 -52 53 -52 53 45 0 c32 0 52 -6 67 -21z
m-558 -24 c0 -3 -5 -14 -12 -24 -9 -15 -3 -67 31 -252 23 -129 41 -242 41
-252 0 -16 -7 -18 -50 -15 l-51 3 -50 145 c-74 215 -113 339 -108 345 5 4 175
53 192 54 4 1 7 -1 7 -4z m873 -31 c38 -10 71 -22 73 -28 2 -6 -32 -116 -76
-245 -44 -129 -80 -236 -80 -238 0 -8 -89 -2 -95 7 -3 5 13 108 35 228 22 121
40 239 40 262 0 34 3 41 18 37 9 -3 48 -13 85 -23z m-468 -53 c3 -5 19 -12 36
-16 27 -6 30 -10 27 -38 l-3 -32 -85 0 -85 0 -3 31 c-2 25 1 33 20 39 13 4 32
11 43 15 29 11 43 11 50 1z m839 -118 l38 -25 -28 -15 c-76 -38 -122 -113
-174 -281 -17 -57 -34 -102 -37 -99 -3 3 0 22 7 41 15 47 7 69 -11 31 -17 -37
-59 -48 -59 -16 0 30 66 228 93 278 12 23 38 60 57 82 39 45 49 46 114 4z
m-1667 14 c47 -26 99 -122 154 -286 30 -89 35 -116 20 -125 -5 -3 -8 2 -7 11
0 11 -6 18 -17 18 -10 0 -25 11 -33 25 -15 24 -15 24 -9 -17 3 -24 3 -43 1
-43 -2 0 -17 37 -31 83 -52 157 -135 287 -184 287 -21 0 -10 15 27 37 43 26
50 26 79 10z m857 -48 c17 -16 -16 -39 -55 -39 -28 0 -41 5 -49 19 -8 16 -6
22 7 30 19 11 82 4 97 -10z m886 -54 c0 -2 -13 -11 -30 -20 -38 -19 -40 -11
-2 9 31 17 32 18 32 11z m-1943 -11 c-3 -3 -12 -4 -19 -1 -8 3 -5 6 6 6 11 1
17 -2 13 -5z m1051 -31 c3 -22 0 -23 -52 -23 -56 0 -62 4 -50 35 5 12 17 15
53 13 39 -3 46 -6 49 -25z m-904 -57 c25 -53 69 -196 62 -203 -2 -2 -16 36
-31 84 -15 48 -40 112 -55 141 -16 30 -23 48 -15 42 8 -7 26 -36 39 -64z
m1666 -94 c-17 -51 -31 -100 -31 -110 -1 -14 -2 -14 -6 -1 -4 16 55 214 62
207 2 -2 -9 -45 -25 -96z m-754 -22 c-4 -58 -10 -122 -13 -142 -5 -36 -7 -38
-44 -38 -21 0 -40 4 -43 9 -3 5 -11 66 -17 136 -13 147 -14 146 70 143 l53 -2
-6 -106z m822 85 c-6 -14 -13 -23 -15 -21 -5 5 15 46 22 46 3 0 -1 -11 -7 -25z
m-1758 -29 c0 -12 -5 -7 -19 24 -11 24 -11 24 3 6 9 -11 16 -24 16 -30z m-174
-11 c7 -22 11 -48 8 -59 -4 -12 -2 -16 5 -12 7 5 11 -5 11 -28 0 -27 4 -36 18
-37 30 -1 -29 -15 -94 -22 l-61 -6 41 104 c22 58 45 103 50 102 4 -1 14 -21
22 -42z m2173 -56 c24 -55 42 -102 40 -103 -2 -2 -35 1 -73 6 -37 6 -63 14
-57 17 6 4 12 43 13 86 3 70 10 94 28 95 3 0 25 -45 49 -101z m-2138 59 c11
-21 11 -22 -4 -9 -10 7 -17 17 -17 22 0 15 9 10 21 -13z m1830 -129 c-11 -30
-20 -49 -20 -43 -1 15 30 106 35 101 2 -2 -5 -28 -15 -58z m-1043 -31 c5 -7
18 -37 28 -66 20 -63 14 -71 -51 -72 -62 -1 -204 -26 -273 -49 -76 -26 -89
-19 -83 46 3 42 2 45 -18 38 -12 -3 -21 -2 -21 3 0 19 182 90 270 105 57 10
138 7 148 -5z m667 -13 c89 -23 191 -78 188 -101 -2 -11 -4 -36 -5 -56 -4 -45
-7 -46 -108 -14 -41 13 -118 29 -170 36 -162 20 -160 20 -160 38 0 9 11 41 25
71 l25 54 73 -6 c39 -3 99 -13 132 -22z m346 -42 c-12 -20 -14 -14 -5 12 4 9
9 14 11 11 3 -2 0 -13 -6 -23z m419 -58 c0 -5 -5 -3 -10 5 -5 8 -10 20 -10 25
0 6 5 3 10 -5 5 -8 10 -19 10 -25z m30 -80 c0 -5 -5 -3 -10 5 -5 8 -10 20 -10
25 0 6 5 3 10 -5 5 -8 10 -19 10 -25z m-1120 6 c58 6 114 12 125 15 70 17 306
-69 369 -135 47 -49 24 -48 -45 1 -13 9 -45 22 -71 29 -42 12 -58 10 -175 -19
-70 -17 -155 -35 -188 -38 l-60 -6 3 -213 3 -212 -47 -12 c-55 -14 -82 -7 -94
24 -5 13 -6 98 -4 190 4 118 2 165 -5 160 -6 -3 -11 -35 -11 -71 0 -46 -3 -63
-11 -58 -17 10 -3 126 17 141 9 6 14 22 12 35 -3 21 -10 24 -71 30 -37 3 -118
18 -178 33 -134 32 -155 33 -197 11 -18 -9 -37 -14 -41 -11 -5 3 -11 0 -13 -6
-2 -7 -10 -10 -18 -7 -23 7 86 79 153 100 91 29 177 34 317 21 89 -8 155 -9
230 -2z m-1095 -21 c20 -8 20 -9 -1 -9 -18 -1 -22 -10 -31 -68 -6 -43 -7 -70
-1 -74 16 -10 -32 -19 -107 -20 -38 0 -97 -6 -130 -13 -33 -7 -61 -12 -63 -11
-4 3 60 168 70 182 6 8 46 14 106 16 54 1 106 3 117 4 11 1 29 -2 40 -7z
m2229 -10 c11 -11 66 -150 66 -169 0 -9 -7 -11 -22 -8 -13 4 -76 11 -141 18
-85 9 -117 15 -113 24 2 7 0 17 -5 22 -6 6 -11 33 -12 62 -2 43 -5 51 -22 51
-13 0 -16 3 -8 8 16 10 245 3 257 -8z m-1579 -141 c28 -12 24 -14 -70 -19 -62
-4 -115 -13 -140 -24 -35 -16 -38 -16 -26 -2 8 9 37 28 65 42 56 27 114 28
171 3z m831 -8 c76 -36 94 -58 24 -31 -38 15 -74 20 -142 20 -98 0 -105 6 -31
26 69 18 81 17 149 -15z m-377 -106 c0 -11 -9 3 -19 30 -11 28 -20 55 -19 60
1 17 38 -69 38 -90z m-964 59 c31 -20 56 -59 66 -102 14 -61 0 -66 -42 -13
-22 27 -53 58 -69 68 -28 18 -29 20 -14 41 18 26 27 27 59 6z m1749 -7 c9 -15
6 -22 -18 -40 -39 -28 -77 -71 -98 -110 l-17 -32 -1 48 c0 55 10 79 54 125 33
35 62 39 80 9z m446 -87 c18 -45 30 -83 28 -85 -3 -3 -17 25 -31 62 -38 99
-40 103 -34 103 3 0 19 -36 37 -80z m-1665 10 c-3 -5 -39 -9 -78 -8 l-72 1 65
7 c36 4 71 7 78 8 7 1 10 -2 7 -8z m734 -6 c10 -9 -86 -3 -99 6 -10 7 2 8 40
4 30 -4 57 -8 59 -10z m-1352 -35 c-3 -12 -3 -35 0 -52 5 -25 8 -28 17 -14 9
12 11 1 8 -47 -5 -77 9 -131 51 -192 35 -53 64 -71 54 -35 -5 22 8 30 16 9 3
-7 3 16 1 52 -8 100 11 52 26 -68 18 -141 10 -147 -74 -60 -72 75 -101 128
-117 214 -11 59 -8 181 5 203 12 18 19 13 13 -10z m744 -65 c3 -43 2 -106 -2
-139 -15 -108 -14 -111 39 -138 90 -47 132 -72 132 -80 0 -5 -4 -5 -10 -2 -5
3 -15 3 -21 -1 -8 -5 -8 -9 1 -14 8 -5 5 -9 -9 -13 -14 -3 -21 0 -21 9 0 21
-19 17 -75 -14 -82 -44 -174 -116 -174 -134 -1 -10 1 -18 3 -18 3 0 40 15 83
33 78 32 78 32 253 32 l175 0 69 -32 c37 -18 70 -33 72 -33 2 0 4 8 4 18 -1
30 -204 142 -261 145 -34 1 -37 3 -19 12 23 12 17 26 -8 18 -13 -3 -13 -1 2
11 11 9 24 16 28 16 5 0 33 16 63 36 l54 36 -2 154 c-1 92 2 157 8 163 7 6 29
3 65 -11 30 -11 76 -25 102 -31 49 -11 65 -7 138 40 23 14 30 14 89 -3 l63
-19 -6 -36 c-5 -29 -25 -55 -107 -135 -55 -54 -109 -115 -119 -135 -20 -38
-51 -204 -49 -261 0 -18 9 17 19 77 11 61 23 122 29 135 l10 25 1 -25 0 -25
20 25 c25 32 25 28 -5 -148 -31 -182 -30 -179 -53 -158 -10 9 -21 16 -25 16
-12 0 -37 -58 -34 -79 1 -11 -2 -20 -7 -19 -16 0 -23 -26 -18 -74 3 -42 7 -48
27 -48 12 0 28 7 35 15 7 9 27 25 44 36 17 11 -3 -11 -44 -50 -41 -39 -78 -71
-81 -71 -4 0 -9 17 -13 38 -3 20 -10 43 -14 50 -11 16 -261 27 -420 17 l-112
-7 -11 -44 c-6 -24 -16 -44 -23 -44 -11 0 -116 97 -116 107 0 3 14 -7 31 -21
36 -31 55 -33 69 -7 13 25 13 41 0 21 -6 -9 -10 -10 -10 -3 0 6 -3 19 -7 29
-5 14 -2 16 20 12 34 -7 35 8 2 71 -14 29 -33 51 -46 54 -17 5 -20 2 -15 -14
20 -65 21 -63 -7 -35 -14 14 -30 26 -36 26 -14 0 -19 21 -36 170 -16 131 -13
232 6 213 9 -9 41 -157 55 -253 4 -30 9 -47 12 -38 4 22 -24 218 -40 273 -9
28 -35 63 -90 119 -50 49 -81 89 -85 107 -5 27 -23 41 -23 18 0 -5 -5 -7 -11
-3 -7 4 -7 10 -1 16 14 14 2 58 -17 58 -25 1 14 21 60 31 32 7 46 4 94 -21 31
-17 69 -30 84 -30 14 1 64 16 111 35 47 18 90 32 95 31 6 -1 13 -38 16 -82z
m1148 32 c23 -103 -15 -237 -101 -351 -54 -72 -92 -93 -105 -60 -7 20 14 206
26 218 4 4 6 -18 4 -50 -2 -42 0 -52 6 -38 5 11 10 14 10 7 1 -7 -4 -22 -10
-34 -6 -11 -8 -22 -6 -25 12 -12 52 28 88 88 32 54 42 81 48 140 4 41 4 84 0
97 -8 21 6 62 22 62 3 0 11 -24 18 -54z m-2328 0 c-14 -36 -22 -33 -9 5 6 16
12 28 14 26 3 -2 0 -16 -5 -31z m309 -46 c0 -5 -6 -10 -14 -10 -8 0 -12 -9
-10 -22 2 -13 5 -42 7 -65 l5 -41 -107 -6 c-58 -3 -133 -10 -166 -16 -33 -5
-76 -12 -97 -15 l-36 -6 18 48 c10 26 27 69 38 94 l20 46 171 2 c113 1 171 -2
171 -9z m2458 -2 c16 -20 71 -168 63 -172 -3 -2 -38 3 -78 9 -40 7 -125 16
-190 20 -94 6 -113 10 -95 18 17 8 22 16 18 31 -3 12 -6 35 -6 53 0 25 -5 33
-27 41 -21 8 15 11 138 11 122 1 169 -2 177 -11z m-539 -92 c-1 -19 -2 -19 -6
-1 -3 10 -12 31 -20 45 l-15 25 21 -24 c12 -13 20 -33 20 -45z m-689 -74 c0
-26 -2 -28 -35 -24 -23 3 -39 12 -47 26 -10 18 -9 19 4 8 19 -15 68 -12 68 5
0 7 2 13 5 13 3 0 5 -13 5 -28z m-796 -163 c13 -35 41 -107 61 -159 20 -52 43
-105 51 -117 7 -12 11 -29 8 -37 -3 -8 7 -32 23 -53 l28 -38 -52 43 c-65 54
-107 106 -121 152 -18 58 -40 199 -46 295 l-5 90 14 -56 c7 -31 25 -85 39
-120z m1299 99 c-7 -108 -42 -306 -60 -342 -19 -36 -121 -146 -137 -146 -5 0
10 20 34 45 24 25 38 45 31 45 -8 0 -10 7 -5 22 6 20 5 21 -9 9 -12 -10 -9 5
11 55 16 38 53 140 82 227 29 86 54 157 55 157 1 0 0 -33 -2 -72z m-783 58 c0
-2 -7 -7 -16 -10 -8 -3 -12 -2 -9 4 6 10 25 14 25 6z m-1382 -88 c-21 -56 -35
-80 -23 -38 11 39 33 90 39 90 2 0 -5 -24 -16 -52z m2972 48 c0 -3 14 -42 31
-88 16 -45 27 -79 23 -76 -13 14 -71 168 -63 168 5 0 9 -2 9 -4z m-3009 -147
c-5 -13 -10 -19 -10 -12 -1 15 10 45 15 40 3 -2 0 -15 -5 -28z m475 -26 c-30
-5 -29 1 -14 -88 4 -27 21 -33 93 -36 68 -2 20 -7 -315 -28 -102 -7 -192 -15
-200 -18 -8 -3 -31 -7 -50 -9 -19 -2 -45 -6 -57 -9 -30 -7 -29 3 10 99 l32 80
105 4 c58 2 107 6 109 8 2 2 74 3 160 3 86 -1 143 -4 127 -6z m2572 -11 c31
-6 36 -14 63 -82 16 -41 29 -80 29 -86 0 -8 -22 -7 -77 2 -43 8 -186 21 -318
30 -132 8 -241 17 -243 19 -2 1 13 6 33 9 35 7 67 47 58 73 -2 6 1 14 6 18 19
11 12 24 -16 29 -16 2 76 3 202 0 127 -2 245 -8 263 -12z m-3035 -207 c-3 -9
-8 -14 -10 -11 -3 3 -2 9 2 15 9 16 15 13 8 -4z m3037 -5 c0 -11 -2 -20 -4
-20 -2 0 -6 9 -9 20 -3 11 -1 20 4 20 5 0 9 -9 9 -20z m140 -90 c17 -41 26
-70 21 -65 -5 6 -23 43 -40 84 -17 41 -26 70 -21 65 5 -5 23 -43 40 -84z
m-2530 -20 c-8 -5 -28 -10 -45 -11 -16 0 -24 -3 -17 -6 6 -2 12 -11 12 -18 0
-8 7 -20 15 -29 13 -13 13 -15 -3 -20 -15 -5 -232 -25 -274 -26 -10 0 -18 -3
-18 -8 0 -4 96 -7 212 -7 181 0 213 -2 216 -15 2 -11 -8 -15 -40 -17 -272 -11
-572 -25 -605 -29 l-43 -5 64 -65 64 -64 301 6 c256 6 301 5 301 -7 0 -8 3
-25 7 -38 4 -15 2 -22 -4 -18 -5 3 -164 7 -354 8 l-344 1 -69 65 c-73 69 -144
108 -213 119 -50 7 -53 20 -20 79 22 40 23 40 97 48 41 4 127 14 190 22 110
14 324 32 440 38 131 7 145 7 130 -3z m1674 -15 c-4 -8 -8 -15 -10 -15 -2 0
-4 7 -4 15 0 8 4 15 10 15 5 0 7 -7 4 -15z m551 -9 c66 -8 165 -20 220 -26 55
-6 107 -13 116 -16 14 -4 59 -83 59 -103 0 -5 -17 -11 -37 -15 -67 -11 -143
-54 -212 -121 l-68 -65 -356 0 c-378 0 -368 -1 -351 44 5 14 27 16 148 15 77
-1 215 -4 306 -8 l165 -6 67 69 c63 63 80 84 61 73 -5 -3 -136 1 -293 9 -157
7 -313 13 -347 14 -57 0 -63 2 -63 21 0 21 1 22 230 17 126 -2 228 -3 226 -1
-3 3 -277 32 -308 33 -14 0 -9 70 5 72 6 1 -13 5 -43 9 -31 4 36 6 150 3 113
-2 259 -10 325 -18z m-3034 -13 c-12 -20 -14 -14 -5 12 4 9 9 14 11 11 3 -2 0
-13 -6 -23z m1832 -89 c3 -3 -4 -15 -16 -27 -19 -19 -32 -21 -142 -21 -124 -1
-155 7 -155 40 0 11 30 14 153 14 85 0 156 -3 160 -6z m-181 -141 l29 -27 22
26 c25 30 67 54 67 39 0 -6 8 -7 18 -4 10 4 0 -13 -24 -43 -22 -27 -49 -62
-60 -78 l-18 -29 37 7 c21 4 37 3 37 -2 0 -6 -18 -31 -40 -58 -41 -50 -41 -74
1 -74 24 0 24 -3 -7 -50 -15 -22 -24 -43 -21 -46 3 -3 21 -1 41 4 47 13 46 4
-5 -61 l-42 -52 42 -3 c22 -2 41 -7 41 -12 0 -5 -15 -26 -32 -46 -24 -27 -29
-39 -19 -42 19 -6 91 -72 91 -83 0 -12 -247 -12 -254 0 -6 9 49 71 62 71 4 0
13 4 21 9 12 8 9 16 -17 46 -41 46 -40 55 3 55 19 0 35 2 35 4 0 3 -11 17 -24
31 -33 36 -51 85 -30 85 9 0 24 -5 35 -10 26 -15 24 -2 -11 50 -25 37 -27 46
-15 53 8 4 19 6 24 2 22 -13 20 17 -2 47 -14 18 -30 43 -36 55 -10 20 -9 21
24 19 19 -2 35 0 35 3 0 4 -22 37 -50 75 -27 38 -50 72 -50 77 0 15 64 -11 92
-38z m-468 -99 c34 -75 72 -204 90 -304 8 -47 13 -86 11 -88 -8 -9 -57 13 -66
29 -13 25 -75 308 -84 384 -6 53 -5 58 9 46 8 -7 26 -37 40 -67z m1006 -87
c-34 -227 -47 -275 -81 -292 -30 -16 -53 -20 -45 -7 2 4 9 44 16 89 11 84 47
201 96 312 15 35 30 59 32 52 2 -6 -6 -75 -18 -154z m-1213 1 c4 -29 8 -56 8
-60 0 -4 -125 -9 -278 -11 -152 -2 -279 -6 -282 -8 -2 -3 7 -36 21 -74 16 -46
19 -63 9 -50 -9 11 -20 36 -26 56 -9 28 -16 35 -30 32 -18 -5 -18 -7 0 -54 34
-88 7 -51 -61 86 l-67 135 349 0 349 0 8 -52z m2113 41 c0 -4 -4 -10 -9 -13
-28 -18 -119 -204 -167 -340 l-27 -78 -56 6 c-31 3 -161 6 -288 7 -128 0 -233
3 -233 6 0 4 5 35 11 71 l11 64 267 -2 c330 -2 331 -2 331 11 0 6 -9 9 -20 6
-25 -7 -25 -3 4 69 21 52 27 59 49 56 14 -2 28 1 31 6 9 16 -88 20 -367 19
l-258 -2 6 45 c12 90 -27 81 366 79 192 -2 349 -6 349 -10z m-2091 -196 c6
-31 9 -58 6 -61 -2 -2 -7 9 -10 24 -3 16 -10 44 -14 62 -5 17 -6 32 -1 32 4 0
12 -26 19 -57z m1368 25 c-3 -8 -6 -5 -6 6 -1 11 2 17 5 13 3 -3 4 -12 1 -19z
m-10 -50 c-3 -7 -5 -2 -5 12 0 14 2 19 5 13 2 -7 2 -19 0 -25z m-2098 -68 c17
-43 31 -83 31 -87 -1 -12 -56 109 -64 140 -12 51 2 27 33 -53z m-124 -14 c55
-57 65 -74 99 -172 71 -202 170 -388 190 -356 3 5 -8 49 -24 98 -40 116 -37
131 3 24 72 -186 130 -257 312 -378 204 -136 692 -356 870 -392 71 -15 163 -8
255 19 177 51 515 207 725 336 213 130 271 188 346 340 51 106 62 119 29 35
-25 -63 -26 -95 -4 -86 26 10 14 -7 -106 -145 -207 -238 -402 -387 -685 -524
-252 -122 -426 -181 -505 -172 -105 13 -463 167 -649 281 -188 115 -367 269
-468 404 -31 42 -132 154 -223 247 -175 179 -221 237 -252 317 -29 78 -21 188
15 188 6 0 39 -29 72 -64z m3181 28 c19 -105 -22 -208 -138 -344 -71 -83 -236
-234 -201 -185 25 37 128 274 149 347 9 29 29 71 44 94 27 39 117 123 132 124
4 0 10 -16 14 -36z m-2286 -43 c1 -17 17 -145 26 -201 3 -24 2 -30 -4 -20 -6
8 -13 39 -17 68 l-7 52 -46 1 c-39 1 -293 -2 -480 -5 l-44 -1 -24 64 c-13 35
-24 67 -24 72 0 4 131 8 292 9 160 0 294 3 297 6 8 7 31 -26 31 -45z m2066 12
c-18 -33 -21 -26 -6 13 6 15 13 24 16 21 3 -3 -1 -18 -10 -34z m-920 -129 c-7
-25 -56 -55 -156 -94 -53 -21 -54 -20 -44 28 6 27 16 35 93 67 47 21 91 41 96
47 13 12 19 -15 11 -48z m-894 2 c86 -41 96 -48 102 -77 3 -18 4 -34 2 -36 -7
-7 -112 37 -159 67 -26 16 -47 36 -47 44 0 8 -3 21 -6 30 -9 24 4 20 108 -28z
m-1249 -161 c23 -27 90 -102 149 -165 178 -191 246 -284 348 -478 51 -97 109
-206 129 -242 l35 -64 -31 19 c-17 11 -58 39 -90 63 -32 24 -106 78 -165 120
-226 163 -389 294 -399 320 -15 38 -7 208 9 224 11 11 17 9 33 -12 10 -14 23
-30 28 -36 18 -23 31 -54 31 -77 0 -43 21 -85 54 -111 l33 -25 -19 38 c-10 21
-21 69 -25 107 -5 62 -11 78 -62 156 -31 48 -74 116 -96 152 -24 40 -42 61
-46 53 -3 -6 -11 -52 -18 -102 -6 -49 -19 -127 -28 -172 -14 -76 -14 -84 1
-108 23 -35 6 -31 -30 6 -28 29 -29 34 -28 122 1 93 20 187 66 310 l21 58 29
-53 c16 -29 48 -75 71 -103z m521 99 c24 -75 15 -78 -12 -4 -12 33 -18 60 -13
60 4 0 15 -25 25 -56z m1759 -2 c-3 -29 -10 -52 -15 -52 -5 0 -7 8 -5 18 3 9
8 34 12 56 9 55 16 39 8 -22z m74 26 c-3 -7 -5 -2 -5 12 0 14 2 19 5 13 2 -7
2 -19 0 -25z m434 0 c-5 -18 -15 -48 -25 -65 -16 -33 -16 -33 7 -33 19 0 26 7
30 28 7 35 37 105 42 100 8 -8 -75 -250 -105 -306 -42 -78 -52 -90 -91 -106
-36 -15 -192 -39 -343 -53 -102 -10 -104 -8 -87 64 6 27 16 98 22 158 6 61 14
112 17 115 4 3 107 2 229 -3 122 -5 229 -7 236 -4 8 3 25 35 38 71 25 69 42
89 30 34z m635 -73 c37 -116 54 -207 54 -286 0 -61 -3 -73 -22 -89 -77 -64
-200 -158 -313 -239 -212 -153 -356 -261 -431 -323 -39 -32 -74 -58 -78 -58
-9 0 135 278 210 405 62 106 145 211 280 355 142 150 204 227 232 289 29 62
31 60 68 -54z m-2950 43 c9 -29 21 -59 27 -66 8 -10 56 -11 221 -6 322 9 308
10 317 -12 4 -11 12 -67 18 -124 7 -58 16 -125 21 -150 4 -25 7 -47 5 -51 -5
-7 -314 26 -383 41 -62 14 -111 52 -147 115 -28 47 -116 305 -104 305 4 0 15
-24 25 -52z m461 10 c-3 -7 -5 -2 -5 12 0 14 2 19 5 13 2 -7 2 -19 0 -25z
m1410 -45 c-3 -10 -5 -2 -5 17 0 19 2 27 5 18 2 -10 2 -26 0 -35z m-1123 -46
c7 -12 17 -47 20 -77 4 -30 10 -65 13 -77 6 -28 -6 -29 -34 -4 -14 13 -24 43
-32 97 -7 43 -16 84 -19 92 -8 22 35 -3 52 -31z m892 16 c-3 -16 -10 -59 -16
-98 -7 -43 -17 -75 -27 -82 -37 -28 -40 -15 -22 100 8 53 16 76 32 89 31 25
39 22 33 -9z m-117 -129 c-11 -88 -25 -114 -57 -114 -8 0 -11 7 -8 18 3 9 10
48 15 85 7 52 15 72 33 86 13 11 24 18 26 16 2 -1 -2 -43 -9 -91z m-676 64
c12 -9 20 -40 28 -96 6 -46 9 -85 7 -87 -2 -2 -13 4 -26 13 -17 14 -25 35 -35
100 -14 86 -10 96 26 70z m120 -80 c16 -12 45 -133 35 -143 -8 -8 -47 7 -52
20 -3 8 -8 41 -12 74 -7 63 -2 71 29 49z m420 -70 c-5 -63 -7 -68 -34 -77 -27
-9 -29 -8 -29 17 0 66 13 103 39 117 14 7 27 13 28 12 0 -1 -1 -32 -4 -69z
m-153 -34 c0 -71 0 -72 -29 -77 -16 -3 -45 -3 -65 0 l-36 6 0 72 0 73 65 -1
65 -2 0 -71z m-249 -93 c127 -29 178 -33 267 -21 94 13 177 38 280 85 65 30
72 32 72 15 0 -27 -23 -46 -100 -85 -157 -79 -326 -102 -483 -66 -148 34 -287
108 -287 152 0 15 12 12 84 -22 46 -21 121 -47 167 -58z m670 -117 c13 -32 14
-42 4 -34 -10 8 -26 3 -66 -21 -136 -80 -260 -111 -439 -111 -161 1 -265 30
-415 117 -27 16 -52 30 -53 31 -8 6 10 64 20 64 6 0 53 -16 105 -36 270 -101
488 -97 748 14 38 17 72 28 75 26 2 -3 12 -25 21 -50z m1409 -81 c70 -148 120
-280 120 -317 0 -9 -13 -10 -52 -4 -93 16 -333 21 -401 9 -138 -24 -275 -82
-416 -176 -46 -30 -86 -54 -88 -51 -7 7 124 148 204 219 131 116 240 188 423
279 96 48 178 87 181 87 4 1 17 -20 29 -46z m-3649 -4 c101 -45 249 -134 357
-214 69 -51 365 -335 357 -343 -2 -2 -47 25 -99 61 -144 100 -263 155 -394
182 -120 25 -320 20 -470 -11 -20 -4 -22 -2 -16 23 25 101 140 343 164 343 4
0 50 -19 101 -41z m1084 27 c28 -8 114 -39 192 -70 200 -79 272 -96 438 -103
208 -8 310 15 600 137 50 21 105 41 123 45 32 7 34 6 27 -15 -5 -15 -4 -20 4
-16 7 5 11 -1 11 -14 0 -14 -5 -20 -17 -18 -10 2 -18 -3 -18 -12 0 -40 -239
-158 -460 -228 -190 -60 -345 -49 -591 44 -86 32 -298 138 -335 167 -15 12
-27 27 -26 32 2 20 -15 55 -24 50 -5 -4 -17 -1 -26 4 -28 16 41 14 102 -3z
m-85 -375 c164 -111 300 -185 545 -296 201 -90 211 -92 282 -57 32 17 103 49
158 72 190 80 376 184 584 322 57 39 100 64 95 56 -21 -35 -168 -199 -219
-242 -125 -108 -191 -150 -507 -318 l-197 -105 -35 23 c-19 13 -113 65 -208
115 -261 137 -354 202 -488 338 -63 64 -131 139 -150 166 l-35 50 45 -33 c25
-19 83 -60 130 -91z m-636 -271 c271 -23 489 -113 581 -239 17 -23 38 -51 48
-63 9 -12 21 -37 26 -57 7 -28 22 -185 26 -275 0 -5 -29 -9 -64 -10 l-65 -1
-12 72 c-14 85 -44 179 -53 166 -3 -4 -28 -8 -56 -8 -87 0 -87 0 -83 -120 l3
-105 -37 0 c-41 0 -40 -2 -57 120 -5 36 -17 115 -27 175 l-17 110 -58 56 c-58
57 -140 99 -194 99 -23 0 -34 -14 -17 -22 11 -5 46 -58 71 -106 20 -39 21 -54
19 -240 l-3 -197 -38 -3 c-44 -4 -49 6 -76 137 -24 114 -25 115 -211 120 -185
4 -186 3 -200 -118 -5 -47 -7 -95 -4 -108 5 -18 2 -23 -13 -23 -11 0 -26 8
-35 18 -33 39 -41 79 -46 212 l-4 135 46 88 c25 49 46 93 46 98 0 12 -57 0
-108 -24 -46 -21 -81 -58 -115 -121 -20 -38 -22 -57 -24 -231 l-2 -190 -43 0
c-40 0 -44 3 -63 40 -28 56 -30 286 -2 328 25 38 3 34 -49 -8 -61 -50 -96
-126 -97 -212 0 -37 3 -87 7 -110 8 -43 8 -43 -22 -43 -25 0 -32 6 -41 31 -16
46 -14 141 5 212 52 203 179 309 449 376 192 47 379 60 609 41z m3121 0 c119
-12 278 -41 353 -66 269 -90 382 -234 382 -485 0 -108 -5 -117 -56 -105 -23 6
-25 10 -17 34 4 15 8 65 8 112 -1 102 -20 146 -91 209 -50 44 -70 52 -59 24
29 -77 29 -222 -1 -322 l-15 -51 -50 0 -51 0 7 88 c4 48 2 132 -3 188 -12 119
-40 185 -100 232 -39 31 -125 62 -138 49 -4 -3 10 -38 30 -77 46 -88 59 -163
46 -284 -10 -102 -43 -181 -75 -181 -17 0 -19 6 -17 50 1 28 -4 77 -11 110
-17 83 -27 87 -202 82 -77 -2 -147 -7 -156 -11 -11 -5 -23 -41 -38 -114 -13
-59 -27 -113 -33 -119 -6 -7 -28 -13 -49 -13 l-39 0 0 203 c0 222 3 237 71
315 35 40 36 52 6 52 -98 0 -229 -96 -265 -193 -16 -42 -51 -235 -64 -346 -3
-24 -5 -25 -73 -22 -79 3 -103 11 -32 11 l47 0 0 99 c0 64 -4 102 -11 107 -7
4 -37 7 -68 7 -31 0 -59 4 -62 10 -9 13 -27 -44 -48 -151 l-18 -87 -58 3 c-32
1 -60 4 -62 5 -1 2 1 67 6 146 l9 142 48 70 c55 82 108 130 184 168 192 97
475 138 765 111z m-2571 -46 c3 -8 2 -12 -4 -9 -6 3 -10 10 -10 16 0 14 7 11
14 -7z m1774 -591 c-10 -2 -28 -2 -40 0 -13 2 -5 4 17 4 22 1 32 -1 23 -4z"/>
<path d="M3155 3770 c-3 -5 -1 -10 4 -10 6 0 11 5 11 10 0 6 -2 10 -4 10 -3 0
-8 -4 -11 -10z"/>
<path d="M2850 3522 c46 -23 53 -63 14 -81 -38 -17 -25 -23 22 -9 59 18 279
15 334 -5 l45 -16 -27 24 c-44 38 -32 85 22 85 20 0 22 2 10 10 -9 6 -109 10
-235 9 -214 0 -219 0 -185 -17z"/>
<path d="M1740 2830 c-12 -8 -9 -10 13 -10 15 0 27 5 27 10 0 13 -20 13 -40 0z"/>
<path d="M4326 2797 c3 -10 9 -15 12 -12 3 3 0 11 -7 18 -10 9 -11 8 -5 -6z"/>
<path d="M4292 2745 c-15 -33 -15 -35 2 -35 12 0 25 28 26 53 0 17 -18 5 -28
-18z"/>
<path d="M1434 2683 c4 -9 10 -38 13 -63 3 -25 11 -52 18 -60 7 -8 15 -23 18
-32 4 -10 15 -18 26 -18 48 0 32 96 -26 153 -39 40 -59 48 -49 20z"/>
<path d="M4614 2658 c-17 -18 -40 -47 -52 -64 -19 -27 -20 -33 -8 -44 26 -21
94 31 98 74 0 12 4 1 8 -24 7 -43 7 -42 8 23 2 78 -8 84 -54 35z"/>
<path d="M1585 1870 c10 -11 20 -20 23 -20 3 0 -3 9 -13 20 -10 11 -20 20 -23
20 -3 0 3 -9 13 -20z"/>
<path d="M3690 2251 c-41 -6 -42 -7 -18 -14 14 -4 33 -4 42 -1 13 5 14 -2 9
-44 l-6 -50 134 -7 c190 -10 201 -8 215 35 28 85 41 78 -156 83 -96 2 -195 1
-220 -2z"/>
<path d="M3665 2160 l-30 -6 33 -5 c18 -3 35 -2 38 2 7 12 -9 16 -41 9z"/>
<path d="M4718 2352 c-15 -31 -50 -92 -77 -136 -52 -81 -55 -92 -66 -189 -5
-42 -16 -71 -41 -108 -39 -58 -43 -70 -14 -44 10 9 26 15 35 11 10 -3 25 3 39
17 18 18 24 38 29 96 6 77 50 185 71 178 16 -5 23 -50 25 -139 1 -91 7 -95 69
-40 l43 37 -11 80 c-12 87 -57 276 -68 287 -4 3 -19 -19 -34 -50z"/>
<path d="M2014 2245 c-2 -5 2 -32 9 -60 l13 -50 168 -1 169 -2 -6 53 -5 53 39
-5 c24 -4 39 -2 39 5 0 21 -418 28 -426 7z"/>
<path d="M2380 2208 c0 -7 4 -19 9 -27 11 -17 25 3 17 24 -7 18 -26 20 -26 3z"/>
<path d="M2385 2150 c3 -5 19 -10 36 -10 16 0 29 5 29 10 0 6 -16 10 -36 10
-21 0 -33 -4 -29 -10z"/>
<path d="M4810 1839 c-56 -25 -54 -23 -40 -49 7 -12 15 -52 18 -89 l7 -66 49
-6 c28 -3 52 -11 54 -17 2 -7 7 -10 11 -7 13 8 -33 255 -47 255 -4 0 -27 -10
-52 -21z"/>
<path d="M4736 1764 c-4 -14 -5 -29 -2 -31 3 -3 8 7 12 21 3 15 4 29 1 32 -2
3 -8 -7 -11 -22z"/>
<path d="M4740 1650 c20 -13 40 -13 40 0 0 6 -12 10 -27 10 -22 0 -25 -2 -13
-10z"/>
<path d="M1214 1843 c-3 -16 -12 -50 -19 -78 -19 -72 -29 -145 -19 -145 5 1
33 6 63 13 51 12 54 14 57 49 1 20 12 56 23 79 12 24 21 44 21 46 0 1 -27 16
-60 33 l-60 30 -6 -27z"/>
<path d="M1350 1751 c0 -11 4 -22 9 -25 4 -3 6 6 3 19 -5 30 -12 33 -12 6z"/>
<path d="M2270 762 c0 -97 4 -153 11 -157 7 -5 9 37 4 146 -4 85 -9 156 -11
158 -2 2 -4 -64 -4 -147z"/>
<path d="M2303 695 c0 -27 2 -38 4 -22 2 15 2 37 0 50 -2 12 -4 0 -4 -28z"/>
<path d="M3812 758 c2 -175 6 -159 10 40 2 67 0 122 -4 122 -5 0 -7 -73 -6
-162z"/>
<path d="M5752 660 c0 -14 2 -19 5 -12 2 6 2 18 0 25 -3 6 -5 1 -5 -13z"/>
<path d="M5751 544 c0 -11 3 -14 6 -6 3 7 2 16 -1 19 -3 4 -6 -2 -5 -13z"/>
</g>
</svg>
